
            <svg data-logo="logo" xmlns="http://www.w3.org/2000/svg" viewBox="0 0 242 40">
                <g id="logogram" transform="translate(0, 0)"><path d="M39.5421 32.3132C36.6477 37.5219 30.7544 40 24.7955 40H0.886963C25.7759 36.8889 43.1092 24.4444 45.3314 7.11111C47.5536 24.4444 64.887 36.8889 89.7758 40H65.8673C59.9084 40 54.0151 37.5219 51.1207 32.3132C47.9879 26.6756 45.992 20.2964 45.3314 13.3333C44.6708 20.2964 42.6749 26.6756 39.5421 32.3132Z" fill="#E52C0B"/><path d="M25.8693 30.4723C24.4731 31.2583 23.0045 31.9966 21.4667 32.6844C20.5932 29.6669 20.2718 26.5012 20.5281 23.3476C20.8672 19.1756 22.207 15.1534 24.4289 11.6376C26.6509 8.12178 29.6862 5.22061 33.2661 3.19118C36.846 1.16176 40.86 0.0666752 44.9526 0.00295073C49.0451 -0.0607826 53.0898 0.908808 56.7285 2.82583C60.3671 4.74284 63.4874 7.54809 65.8128 10.9932C68.1383 14.4382 69.5973 18.4167 70.0605 22.5762C70.4392 25.9784 70.1423 29.4159 69.1961 32.6844C67.6583 31.9966 66.1897 31.2582 64.7935 30.4722C65.3822 28.0827 65.5471 25.5968 65.2729 23.1339C64.8994 19.7796 63.7229 16.5714 61.8477 13.7933C59.9724 11.0153 57.4562 8.75307 54.522 7.2072C51.5878 5.66131 48.3261 4.87944 45.0259 4.93083C41.7256 4.98221 38.4887 5.86529 35.602 7.50178C32.7151 9.13831 30.2674 11.4778 28.4757 14.313C26.6839 17.1482 25.6035 20.3916 25.3301 23.7559C25.1462 26.0172 25.3308 28.2864 25.8693 30.4723Z" fill="#7FB5E6"/></g>
                <g id="logotype" transform="translate(91, 0.5)"><path fill="#000000" d="M7.71 38.52L1.77 23.45L0.56 23.23L0.56 22.90L3.20 22.90Q4.37 22.90 5.11 23.43Q5.86 23.96 6.17 24.77L6.17 24.77L9.49 33.24L11.43 27.56L9.80 23.45L8.59 23.23L8.59 22.90L11.23 22.90Q12.40 22.90 13.12 23.42Q13.85 23.93 14.20 24.77L14.20 24.77L17.52 33.24L20.69 23.89L19.04 23.23L19.04 22.90L23.11 22.90L23.11 23.23L21.35 23.89L16.40 38.52L15.74 38.52L11.78 28.47L8.37 38.52L7.71 38.52ZM28.28 38.63Q25.55 38.63 24.00 37.08Q22.45 35.53 22.45 32.80L22.45 32.80Q22.45 30.07 24.00 28.52Q25.55 26.97 28.28 26.97L28.28 26.97Q31.01 26.97 32.56 28.52Q34.11 30.07 34.11 32.80L34.11 32.80Q34.11 35.53 32.56 37.08Q31.01 38.63 28.28 38.63L28.28 38.63ZM28.28 38.19Q29.16 38.19 29.76 36.96Q30.37 35.73 30.37 32.80L30.37 32.80Q30.37 29.87 29.76 28.64Q29.16 27.41 28.28 27.41L28.28 27.41Q27.40 27.41 26.79 28.64Q26.19 29.87 26.19 32.80L26.19 32.80Q26.19 35.73 26.79 36.96Q27.40 38.19 28.28 38.19L28.28 38.19ZM35.87 38.30L35.87 37.97L37.19 37.64L37.19 27.96L35.87 27.63L35.87 27.30L37.85 27.30Q39.15 27.30 39.90 28.14L39.90 28.14Q40.18 28.47 40.38 28.95L40.38 28.95Q40.71 28.47 41.19 28.07L41.19 28.07Q42.29 27.19 43.66 27.19L43.66 27.19Q44.82 27.19 45.41 27.73Q45.99 28.27 45.99 29.28L45.99 29.28Q45.99 30.03 45.54 30.48Q45.09 30.93 44.34 30.93L44.34 30.93Q44.03 30.93 43.72 30.89L43.72 30.89L43.46 30.82L43.46 27.74Q42.34 27.74 41.41 28.62L41.41 28.62Q40.97 29.06 40.71 29.50L40.71 29.50L40.71 37.64L42.03 37.97L42.03 38.30L35.87 38.30ZM46.98 38.30L46.98 37.97L48.30 37.64L48.30 23.56L46.98 23.23L46.98 22.90L49.84 22.90Q51.82 22.90 51.82 24.88L51.82 24.88L51.82 37.64L53.14 37.97L53.14 38.30L46.98 38.30ZM58.97 38.63Q57.67 38.63 56.66 37.96Q55.65 37.29 55.05 35.98Q54.46 34.67 54.46 32.80L54.46 32.80Q54.46 29.98 55.77 28.48Q57.08 26.97 59.30 26.97L59.30 26.97Q60.36 26.97 61.15 27.41L61.15 27.41Q61.48 27.56 61.83 27.85L61.83 27.85L61.83 23.56L60.51 23.23L60.51 22.90L63.37 22.90Q65.35 22.90 65.35 24.88L65.35 24.88L65.35 37.64L66.67 37.97L66.67 38.30L64.69 38.30Q63.37 38.30 62.64 37.49L62.64 37.49Q62.34 37.16 62.16 36.65L62.16 36.65Q61.87 37.20 61.43 37.64L61.43 37.64Q60.44 38.63 58.97 38.63L58.97 38.63ZM59.85 37.86Q60.66 37.86 61.32 36.98L61.32 36.98Q61.57 36.65 61.83 36.10L61.83 36.10L61.83 28.51Q61.59 28.27 61.32 28.07L61.32 28.07Q60.73 27.63 60.18 27.63L60.18 27.63Q59.23 27.63 58.72 28.73Q58.20 29.83 58.20 32.80L58.20 32.80Q58.20 35.64 58.67 36.75Q59.15 37.86 59.85 37.86L59.85 37.86ZM74.48 38.30L74.48 37.97L75.80 37.64L75.80 23.56L74.48 23.23L74.48 22.90L80.31 22.90Q84.05 22.90 85.70 24.03Q87.35 25.17 87.35 27.19L87.35 27.19Q87.35 28.55 86.62 29.40Q85.90 30.25 84.75 30.67L84.75 30.67Q83.54 31.13 82.18 31.15L82.18 31.15L82.18 31.26Q82.99 31.30 83.61 31.50L83.61 31.50Q85.15 31.99 85.70 33.24L85.70 33.24L87.68 37.64L88.78 37.97L88.78 38.30L85.70 38.30Q83.90 38.30 83.06 36.43L83.06 36.43L80.86 31.48L79.43 31.48L79.43 37.64L80.97 37.97L80.97 38.30L74.48 38.30ZM79.43 30.93L80.31 30.93Q81.85 30.93 82.73 29.96Q83.61 28.99 83.61 27.19L83.61 27.19Q83.61 25.39 82.73 24.42Q81.85 23.45 80.31 23.45L80.31 23.45L79.43 23.45L79.43 30.93ZM95.49 38.63Q92.76 38.63 91.21 37.08Q89.66 35.53 89.66 32.80L89.66 32.80Q89.66 30.07 91.21 28.52Q92.76 26.97 95.49 26.97L95.49 26.97Q98.22 26.97 99.77 28.52Q101.32 30.07 101.32 32.80L101.32 32.80Q101.32 35.53 99.77 37.08Q98.22 38.63 95.49 38.63L95.49 38.63ZM95.49 38.19Q96.37 38.19 96.97 36.96Q97.58 35.73 97.58 32.80L97.58 32.80Q97.58 29.87 96.97 28.64Q96.37 27.41 95.49 27.41L95.49 27.41Q94.61 27.41 94.00 28.64Q93.40 29.87 93.40 32.80L93.40 32.80Q93.40 35.73 94.00 36.96Q94.61 38.19 95.49 38.19L95.49 38.19ZM108.36 38.63Q107.13 38.63 106.15 38.11Q105.17 37.60 104.62 36.76Q104.07 35.92 104.07 35L104.07 35L104.07 27.96L102.75 27.63L102.75 27.30L105.61 27.30Q107.59 27.30 107.59 29.28L107.59 29.28L107.59 35Q107.59 36.39 108.08 37.12Q108.58 37.86 109.24 37.86L109.24 37.86Q110.05 37.86 110.71 36.98L110.71 36.98Q110.96 36.65 111.22 36.10L111.22 36.10L111.22 27.96L109.90 27.63L109.90 27.30L116.06 27.30L116.06 27.63L114.74 27.96L114.74 38.41L114.52 38.41Q112.91 38.41 112.08 37.53L112.08 37.53Q111.70 37.13 111.55 36.65L111.55 36.65Q111.24 37.20 110.82 37.64L110.82 37.64Q109.83 38.63 108.36 38.63L108.36 38.63ZM123.10 38.63Q121.65 38.63 120.58 38.10Q119.51 37.57 118.94 36.65Q118.37 35.73 118.37 34.56L118.37 34.56L118.37 27.85L116.83 27.85L116.83 27.30L118.37 27.30L118.37 26.20Q118.37 24.22 120.35 24.22L120.35 24.22L121.89 24.22L121.89 27.30L124.97 27.30L124.97 27.85L121.89 27.85L121.89 34.56Q121.89 36.58 122.31 37.33Q122.73 38.08 123.54 38.08L123.54 38.08Q124.33 38.08 124.93 37.31Q125.52 36.54 125.52 35.22L125.52 35.22L126.07 35.22Q126.07 36.85 125.26 37.74Q124.44 38.63 123.10 38.63L123.10 38.63ZM133.22 38.63Q130.40 38.63 128.84 37.08Q127.28 35.53 127.28 32.80L127.28 32.80Q127.28 31.02 127.96 29.70Q128.64 28.38 129.86 27.67Q131.09 26.97 132.67 26.97L132.67 26.97Q134.25 26.97 135.45 27.56Q136.65 28.16 137.30 29.16Q137.95 30.16 137.95 31.37L137.95 31.37Q137.95 31.92 137.84 32.32L137.84 32.32L137.73 32.69Q136.78 32.89 135.68 33.02L135.68 33.02Q133.37 33.35 131.02 33.35L131.02 33.35Q131.02 35.90 131.72 36.99Q132.43 38.08 133.66 38.08L133.66 38.08Q134.52 38.08 135.25 37.67Q135.99 37.27 136.42 36.59Q136.85 35.92 136.85 35.22L136.85 35.22L137.40 35.22Q137.40 36.10 136.87 36.89Q136.34 37.68 135.40 38.16Q134.45 38.63 133.22 38.63L133.22 38.63ZM131.02 32.80Q132.43 32.80 133.31 32.69L133.31 32.69Q133.68 32.67 134.10 32.58L134.10 32.58Q134.12 32.47 134.21 32.10L134.21 32.10Q134.32 31.55 134.32 30.93L134.32 30.93Q134.32 29.10 133.84 28.26Q133.35 27.41 132.67 27.41L132.67 27.41Q131.02 27.41 131.02 32.80L131.02 32.80ZM144.77 38.63Q143.41 38.63 142.33 38.04L142.33 38.04Q141.80 37.75 141.47 37.42L141.47 37.42Q141.12 37.90 140.70 38.17L140.70 38.17Q140.50 38.30 140.26 38.41L140.26 38.41L139.71 38.41L139.71 34.67L140.59 34.67Q140.88 35.59 141.43 36.39L141.43 36.39Q142.59 38.08 144.33 38.08L144.33 38.08Q145.25 38.08 145.73 37.63Q146.20 37.18 146.20 36.32L146.20 36.32Q146.20 35.59 145.55 35.10Q144.90 34.60 143.52 33.88L143.52 33.88Q142.33 33.28 141.59 32.81Q140.85 32.34 140.34 31.62Q139.82 30.91 139.82 29.94L139.82 29.94Q139.82 28.62 140.95 27.79Q142.09 26.97 144.44 26.97L144.44 26.97Q145.61 26.97 146.60 27.59L146.60 27.59Q147.08 27.87 147.43 28.18L147.43 28.18Q147.72 27.78 148.20 27.43L148.20 27.43Q148.58 27.21 148.64 27.19L148.64 27.19L149.19 27.19L149.19 30.93L148.31 30.93Q147.98 29.98 147.50 29.24L147.50 29.24Q146.40 27.52 144.88 27.52L144.88 27.52Q144.29 27.52 143.87 27.96Q143.45 28.40 143.45 29.06L143.45 29.06Q143.45 29.90 144.15 30.46Q144.86 31.02 146.29 31.74L146.29 31.74Q147.45 32.34 148.15 32.79Q148.84 33.24 149.33 33.90Q149.83 34.56 149.83 35.44L149.83 35.44Q149.83 38.63 144.77 38.63L144.77 38.63Z"/></g>
                
            </svg>
        